<?xml version="1.0" encoding="utf-8"?>
<!-- Generator: Avocode 2.4.5 - http://avocode.com -->
<svg height="19" width="23" xmlns:xlink="http://www.w3.org/1999/xlink" xmlns="http://www.w3.org/2000/svg" viewBox="0 0 23 19">
    <path fill="#fefefe" fill-rule="evenodd" d="M 0 9 L 7 9 L 7 0 L 0 0 L 0 9 Z M 1 1 L 6 1 L 6 8 L 1 8 L 1 1 Z M 1 1" />
    <path fill="#fefefe" fill-rule="evenodd" d="M 0 19 L 7 19 L 7 10 L 0 10 L 0 19 Z M 1 11 L 6 11 L 6 18 L 1 18 L 1 11 Z M 1 11" />
    <path fill="#fefefe" fill-rule="evenodd" d="M 8 9 L 15 9 L 15 0 L 8 0 L 8 9 Z M 9 1 L 14 1 L 14 8 L 9 8 L 9 1 Z M 9 1" />
    <path fill="#fefefe" fill-rule="evenodd" d="M 8 19 L 15 19 L 15 10 L 8 10 L 8 19 Z M 9 11 L 14 11 L 14 18 L 9 18 L 9 11 Z M 9 11" />
    <path fill="#fefefe" fill-rule="evenodd" d="M 16 9 L 23 9 L 23 0 L 16 0 L 16 9 Z M 17 1 L 22 1 L 22 8 L 17 8 L 17 1 Z M 17 1" />
    <path fill="#fefefe" fill-rule="evenodd" d="M 16 19 L 23 19 L 23 10 L 16 10 L 16 19 Z M 17 11 L 22 11 L 22 18 L 17 18 L 17 11 Z M 17 11" />
</svg>