<?xml version="1.0" encoding="utf-8"?>
<!-- Generator: Avocode 2.4.5 - http://avocode.com -->
<svg height="26" width="19" xmlns:xlink="http://www.w3.org/1999/xlink" xmlns="http://www.w3.org/2000/svg" viewBox="0 0 19 26">
    <path fill="#d0021b" fill-rule="evenodd" d="M 1.24 15.26 L 1.24 13.28 L 0.24 13.28 L 0.24 15.26 C 0.24 16.86 0.72 18.35 1.54 19.62 L 2.17 18.75 C 1.58 17.71 1.24 16.52 1.24 15.26" />
    <path fill="#f52323" fill-rule="evenodd" d="M 17.23 13.28 L 17.23 15.26 C 17.23 19.34 13.71 22.65 9.4 22.65 L 9.07 22.65 C 7.24 22.65 5.55 22.05 4.21 21.05 L 3.62 21.85 C 5.04 22.91 6.8 23.56 8.72 23.64 L 8.72 26 L 9.72 26 L 9.72 23.63 C 14.44 23.47 18.23 19.78 18.23 15.26 L 18.23 13.28 L 17.23 13.28 Z M 17.23 13.28" />
    <path fill="#f52323" fill-rule="evenodd" d="M 7.02 12.01 L 7.02 11.01 L 7.86 11.01 L 9.7 8.52 L 7.02 8.52 L 7.02 7.52 L 10.43 7.52 L 13.37 3.52 C 12.31 2.58 10.92 2 9.39 2 L 9.07 2 C 5.77 2 3.08 4.69 3.08 7.99 L 3.08 14.77 C 3.08 15.54 3.23 16.27 3.5 16.95 L 7.13 12.01 L 7.02 12.01 Z M 7.02 12.01" />
    <path fill="#f52323" fill-rule="evenodd" d="M 11.62 11.01 L 11.62 12.01 L 10.85 12.01 L 9.09 14.41 L 11.62 14.41 L 11.62 15.41 L 8.35 15.41 L 5.37 19.47 C 6.39 20.28 7.68 20.76 9.07 20.76 L 9.39 20.76 C 12.7 20.76 15.39 18.07 15.39 14.77 L 15.39 8 C 15.39 7.37 15.29 6.77 15.12 6.21 L 11.58 11.01 L 11.62 11.01 Z M 11.62 11.01" />
    <path fill="#f52323" fill-rule="evenodd" d="M 0.81 24 L 0 23.41 L 16.64 0.76 L 17.44 1.35 L 0.81 24 Z M 0.81 24" />
</svg>