<?xml version="1.0" encoding="UTF-8" standalone="no"?>
<svg width="18px" height="26px" viewBox="0 0 18 26" version="1.1" xmlns="http://www.w3.org/2000/svg" xmlns:xlink="http://www.w3.org/1999/xlink" xmlns:sketch="http://www.bohemiancoding.com/sketch/ns">
    <!-- Generator: Sketch 3.5.1 (25234) - http://www.bohemiancoding.com/sketch -->
    <title>hand_icon_on</title>
    <desc>Created with Sketch.</desc>
    <defs></defs>
    <g id="Page-1" stroke="none" stroke-width="1" fill="none" fill-rule="evenodd" sketch:type="MSPage">
        <g id="Full-Screen-Page_Doc" sketch:type="MSArtboardGroup" transform="translate(-296.000000, -730.000000)" fill="#FFFFFF">
            <g id="doc1" sketch:type="MSLayerGroup">
                <g id="hand_icon_on" transform="translate(285.000000, 723.000000)" sketch:type="MSShapeGroup">
                    <path d="M27.3238,25.2801 C27.2378,29.5481 23.6348,31.0691 21.0168,31.0691 C19.4338,31.0691 17.0068,30.6041 15.5608,28.3931 L15.5538,28.3831 C15.1768,27.8801 14.7848,27.1241 14.3898,26.1381 C14.1828,25.6231 13.5748,23.4211 13.2878,22.2151 C13.2188,21.9261 13.1288,21.6171 13.0418,21.3171 C12.7978,20.4801 12.5208,19.5321 12.7728,19.1121 C12.8438,18.9921 12.9608,18.9161 13.1298,18.8801 C13.1868,18.8681 13.2468,18.8621 13.3078,18.8621 C13.9928,18.8621 14.7498,19.6131 15.1728,20.6801 C15.7258,22.0781 16.0448,23.1711 16.0448,23.1711 L16.0448,12.9331 C16.0448,12.1181 16.4718,11.4551 17.1418,11.4551 C17.8128,11.4551 18.3578,12.1181 18.3578,12.9331 L18.3578,19.0071 C18.3578,19.4011 18.6098,19.7191 18.9208,19.7191 C19.2318,19.7191 19.4828,19.4011 19.4828,19.0071 L19.4828,10.1721 C19.4828,9.4521 19.9628,8.8671 20.5528,8.8671 C21.1418,8.8671 21.6218,9.4521 21.6218,10.1721 L21.6218,19.0071 C21.6218,19.4011 21.8658,19.7191 22.1668,19.7191 C22.4678,19.7191 22.7118,19.4011 22.7118,19.0071 L22.7118,11.7681 C22.7118,11.1101 23.1488,10.5751 23.6848,10.5751 C24.2218,10.5751 24.6578,11.1101 24.6578,11.7681 L24.6578,18.9281 C24.6578,19.3221 24.9098,19.6401 25.2208,19.6401 C25.5318,19.6401 25.7838,19.3221 25.7838,18.9281 L25.7838,15.3861 C25.7838,14.8941 26.1018,14.4941 26.4928,14.4941 C26.8828,14.4941 27.3198,14.8941 27.3198,15.3861 L27.3198,22.2351 C27.3208,22.2351 27.3258,24.9871 27.3258,24.9871 C27.3258,25.0151 27.3238,25.2801 27.3238,25.2801 M26.5468,13.4341 C26.2388,13.4341 25.9438,13.5211 25.6838,13.6751 L25.6838,11.7681 C25.6838,10.5451 24.7868,9.5491 23.6848,9.5491 C23.3048,9.5491 22.9498,9.6701 22.6468,9.8751 C22.5158,8.7201 21.6278,7.8231 20.5528,7.8231 C19.3868,7.8231 18.4388,8.8771 18.4388,10.1721 L18.4388,10.7881 C18.0678,10.5091 17.6218,10.3471 17.1418,10.3471 C15.8608,10.3471 14.9368,11.5071 14.9368,12.9331 L14.9368,18.4101 C14.4408,17.9901 13.8778,17.7541 13.3078,17.7541 C13.1698,17.7541 13.0328,17.7681 12.8998,17.7961 C12.3018,17.9231 11.9828,18.2731 11.8208,18.5441 C11.3218,19.3781 11.6548,20.5221 11.9778,21.6271 C12.0648,21.9271 12.1468,22.2101 12.2098,22.4711 C12.4878,23.6421 13.1138,25.9351 13.3608,26.5501 C13.7858,27.6121 14.2188,28.4441 14.6488,29.0241 C15.9898,31.0571 18.4038,32.1771 21.0168,32.1771 C24.4338,32.1771 28.4338,29.9871 28.4338,25.0951 L28.4338,25.0231 L28.4338,24.9871 L28.4338,22.2351 L28.4338,21.2771 L28.4338,15.3861 C28.4338,14.3101 27.5218,13.4341 26.5468,13.4341" id="Fill-4"></path>
                </g>
            </g>
        </g>
    </g>
</svg>