<?xml version="1.0" encoding="utf-8"?>
<!-- Generator: Avocode 2.4.5 - http://avocode.com -->
<svg height="24" width="18" xmlns:xlink="http://www.w3.org/1999/xlink" xmlns="http://www.w3.org/2000/svg" viewBox="0 0 18 24">
    <path fill="#ffffff" fill-rule="evenodd" d="M 3.84 5.99 C 3.84 3.24 6.08 1 8.83 1 L 9.15 1 C 11.91 1 14.15 3.24 14.15 5.99 L 14.15 12.77 C 14.15 15.52 11.91 17.76 9.15 17.76 L 8.83 17.76 C 6.08 17.76 3.84 15.52 3.84 12.77 L 3.84 5.99 Z M 8.83 18.76 L 9.15 18.76 C 12.46 18.76 15.15 16.07 15.15 12.77 L 15.15 5.99 C 15.15 2.69 12.46 0 9.15 0 L 8.83 0 C 5.53 0 2.84 2.69 2.84 5.99 L 2.84 12.77 C 2.84 16.07 5.53 18.76 8.83 18.76 L 8.83 18.76 Z M 8.83 18.76" />
    <path fill="#ffffff" fill-rule="evenodd" d="M 16.99 11.28 L 16.99 13.26 C 16.99 17.34 13.47 20.65 9.15 20.65 L 8.83 20.65 C 4.51 20.65 1 17.34 1 13.26 L 1 11.28 L 0 11.28 L 0 13.26 C 0 17.77 3.77 21.45 8.48 21.63 L 8.48 24 L 9.48 24 L 9.48 21.63 C 14.19 21.47 17.98 17.78 17.98 13.26 L 17.98 11.28 L 16.99 11.28 Z M 16.99 11.28" />
    <path fill="#ffffff" fill-rule="evenodd" d="M 11.37 5.52 L 6.78 5.52 L 6.78 6.52 L 11.37 6.52 L 11.37 5.52 Z M 11.37 5.52" />
    <path fill="#ffffff" fill-rule="evenodd" d="M 11.37 9.01 L 6.78 9.01 L 6.78 10.01 L 11.37 10.01 L 11.37 9.01 Z M 11.37 9.01" />
    <path fill="#ffffff" fill-rule="evenodd" d="M 11.37 12.41 L 6.78 12.41 L 6.78 13.41 L 11.37 13.41 L 11.37 12.41 Z M 11.37 12.41" />
</svg>