<?xml version="1.0" encoding="utf-8"?>
<!-- Generator: Avocode 2.4.5 - http://avocode.com -->
<svg height="21" width="24" xmlns:xlink="http://www.w3.org/1999/xlink" xmlns="http://www.w3.org/2000/svg" viewBox="0 0 24 21">
    <path fill="#ffffff" fill-rule="evenodd" d="M 6.65 4.15 C 8.28 4.15 9.61 5.48 9.61 7.11 C 9.61 8.74 8.28 10.07 6.65 10.07 C 5.02 10.07 3.69 8.74 3.69 7.11 C 3.69 5.48 5.02 4.15 6.65 4.15 M 6.65 11.23 C 8.92 11.23 10.77 9.38 10.77 7.11 C 10.77 4.84 8.92 2.99 6.65 2.99 C 4.38 2.99 2.53 4.84 2.53 7.11 C 2.53 9.38 4.38 11.23 6.65 11.23" />
    <path fill="#ffffff" fill-rule="evenodd" d="M 17.35 1.35 C 18.98 1.35 20.31 2.68 20.31 4.31 C 20.31 5.94 18.98 7.27 17.35 7.27 C 15.72 7.27 14.39 5.94 14.39 4.31 C 14.39 2.68 15.72 1.35 17.35 1.35 M 17.35 8.43 C 19.62 8.43 21.47 6.58 21.47 4.31 C 21.47 2.04 19.62 0.19 17.35 0.19 C 15.08 0.19 13.23 2.04 13.23 4.31 C 13.23 6.58 15.08 8.43 17.35 8.43" />
    <path fill="#ffffff" fill-rule="evenodd" d="M 22.84 17.04 L 13.29 17.04 L 13.29 16.05 C 13.29 15.97 13.29 15.89 13.29 15.82 C 13.23 14.62 12.71 13.53 11.91 12.74 C 12.16 11.05 13.62 9.77 15.35 9.77 L 15.73 9.77 C 15.8 9.95 15.89 10.12 16.02 10.27 L 15.51 14.1 C 15.49 14.29 15.56 14.48 15.7 14.6 L 16.96 15.74 C 17.19 15.94 17.53 15.94 17.75 15.73 L 18.92 14.63 C 19.06 14.5 19.13 14.32 19.1 14.13 L 18.61 10.36 C 18.77 10.19 18.89 9.99 18.97 9.77 L 19.35 9.77 C 21.28 9.77 22.84 11.33 22.84 13.25 L 22.84 17.04 Z M 12.13 19.84 L 1.16 19.84 L 1.16 16.05 C 1.16 14.13 2.72 12.56 4.64 12.56 L 5.03 12.56 C 5.09 12.75 5.19 12.91 5.31 13.06 L 4.8 16.89 C 4.78 17.08 4.85 17.27 4.99 17.4 L 6.26 18.54 C 6.48 18.74 6.82 18.73 7.04 18.53 L 8.22 17.43 C 8.35 17.3 8.42 17.11 8.4 16.93 L 7.9 13.16 C 8.06 12.99 8.19 12.78 8.26 12.56 L 8.65 12.56 C 9.53 12.56 10.33 12.9 10.95 13.44 C 11.03 13.51 11.1 13.58 11.17 13.65 C 11.19 13.67 11.21 13.69 11.23 13.71 C 11.29 13.78 11.35 13.85 11.41 13.93 C 11.43 13.95 11.44 13.98 11.46 14 C 11.52 14.07 11.57 14.15 11.61 14.23 C 11.63 14.25 11.65 14.28 11.66 14.31 C 11.71 14.38 11.75 14.47 11.79 14.55 C 11.8 14.57 11.81 14.6 11.83 14.63 C 11.87 14.71 11.9 14.8 11.93 14.89 C 11.94 14.91 11.95 14.94 11.96 14.96 C 11.99 15.06 12.01 15.15 12.04 15.24 C 12.04 15.27 12.05 15.29 12.05 15.32 C 12.08 15.41 12.09 15.51 12.1 15.61 C 12.11 15.63 12.11 15.66 12.11 15.68 C 12.13 15.8 12.13 15.93 12.13 16.05 L 12.13 17.62 L 12.13 19.84 Z M 19.35 8.61 L 18.49 8.61 C 18.17 8.61 17.91 8.87 17.91 9.19 C 17.91 9.37 17.82 9.55 17.67 9.65 C 17.49 9.77 17.39 9.99 17.42 10.2 L 17.91 13.99 L 17.34 14.52 L 16.7 13.94 L 17.2 10.14 C 17.23 9.94 17.15 9.75 17 9.62 C 16.87 9.51 16.79 9.36 16.79 9.19 C 16.79 8.87 16.53 8.61 16.21 8.61 L 15.35 8.61 C 13.25 8.61 11.45 10.03 10.89 11.98 C 10.22 11.61 9.46 11.4 8.65 11.4 L 7.79 11.4 C 7.46 11.4 7.21 11.66 7.21 11.98 C 7.21 12.17 7.11 12.34 6.96 12.45 C 6.78 12.57 6.68 12.78 6.71 13 L 7.21 16.78 L 6.64 17.32 L 5.99 16.74 L 6.5 12.94 C 6.52 12.74 6.45 12.54 6.29 12.41 C 6.16 12.31 6.09 12.15 6.09 11.98 C 6.09 11.66 5.83 11.4 5.51 11.4 L 4.64 11.4 C 2.08 11.4 0 13.49 0 16.05 L 0 20.42 C 0 20.74 0.26 21 0.58 21 L 12.71 21 C 13.03 21 13.29 20.74 13.29 20.42 L 13.29 18.2 L 23.42 18.2 C 23.74 18.2 24 17.94 24 17.62 L 24 13.25 C 24 10.69 21.92 8.61 19.35 8.61 L 19.35 8.61 Z M 19.35 8.61" />
</svg>