<?xml version="1.0" encoding="utf-8"?>
<!-- Generator: Avocode 2.4.5 - http://avocode.com -->
<svg height="24" width="24" xmlns:xlink="http://www.w3.org/1999/xlink" xmlns="http://www.w3.org/2000/svg" viewBox="0 0 24 24">
    <path fill="#ffffff" fill-rule="evenodd" d="M 0 0.56 L 0 13.53 L 0 14.62 L 0 16.98 L 10.46 16.98 L 4.21 23.23 L 4.98 24 L 11.2 17.77 L 11.2 23.86 L 12.3 23.86 L 12.3 17.73 L 18.57 24 L 19.34 23.23 L 13.09 16.98 L 23.5 16.98 L 23.5 0.56 L 0 0.56 Z M 1.09 1.65 L 22.41 1.65 L 22.41 13.53 L 1.09 13.53 L 1.09 1.65 Z M 1.09 14.62 L 22.41 14.62 L 22.41 15.89 L 1.09 15.89 L 1.09 14.62 Z M 1.09 14.62" />
    <path fill="#ffffff" fill-rule="evenodd" d="M 8.76 2.92 L 2.65 2.92 L 2.65 4.01 L 8.76 4.01 L 8.76 2.92 Z M 8.76 2.92" />
    <path fill="#ffffff" fill-rule="evenodd" d="M 12.59 5.28 L 2.65 5.28 L 2.65 6.37 L 12.59 6.37 L 12.59 5.28 Z M 12.59 5.28" />
    <path fill="#ffffff" fill-rule="evenodd" d="M 5.51 7.64 L 2.65 7.64 L 2.65 8.73 L 5.51 8.73 L 5.51 7.64 Z M 5.51 7.64" />
</svg>