<?xml version="1.0" encoding="utf-8"?>
<!-- Generator: Avocode 2.4.5 - http://avocode.com -->
<svg height="24" width="24" xmlns:xlink="http://www.w3.org/1999/xlink" xmlns="http://www.w3.org/2000/svg" viewBox="0 0 24 24">
    <path fill="#f52323" fill-rule="evenodd" d="M 14.88 19.17 C 15.79 19.17 16.54 18.42 16.54 17.5 L 16.54 8.35 L 8.59 19.17 L 14.88 19.17 Z M 14.88 19.17" />
    <path fill="#f52323" fill-rule="evenodd" d="M 14.88 4.83 L 1.66 4.83 C 0.75 4.83 0 5.58 0 6.5 L 0 17.5 C 0 18.42 0.75 19.17 1.66 19.17 L 4.87 19.17 L 15.35 4.91 C 15.2 4.86 15.04 4.83 14.88 4.83" />
    <path fill="#f52323" fill-rule="evenodd" d="M 3.8 24 L 3 23.41 L 19.64 0.76 L 20.44 1.35 L 3.8 24 Z M 3.8 24" />
    <path fill="#f52323" fill-rule="evenodd" d="M 23.06 5.56 C 22.91 5.56 22.76 5.59 22.61 5.66 L 17.54 7.89 L 17.54 16.11 L 22.61 18.34 C 22.76 18.4 22.91 18.44 23.06 18.44 C 23.61 18.44 24 18.02 24 17.43 L 24 6.57 C 24 5.98 23.61 5.56 23.06 5.56" />
</svg>