<?xml version="1.0" encoding="utf-8"?>
<!-- Generator: Avocode 2.4.5 - http://avocode.com -->
<svg height="15" width="24" xmlns:xlink="http://www.w3.org/1999/xlink" xmlns="http://www.w3.org/2000/svg" viewBox="0 0 24 15">
    <path fill="#ffffff" fill-rule="evenodd" d="M 22.89 13.08 L 16.82 10.42 C 16.69 10.36 16.54 10.14 16.54 9.99 L 16.54 5.67 C 16.54 5.53 16.69 5.31 16.82 5.25 L 22.89 2.58 L 22.89 13.08 Z M 15.43 13.33 C 15.43 13.64 15.18 13.89 14.88 13.89 L 1.67 13.89 C 1.36 13.89 1.11 13.64 1.11 13.33 L 1.11 2.33 C 1.11 2.02 1.36 1.77 1.67 1.77 L 14.88 1.77 C 15.18 1.77 15.43 2.02 15.43 2.33 L 15.43 5.67 L 15.43 9.99 L 15.43 13.33 Z M 23.06 1.39 C 22.91 1.39 22.76 1.43 22.61 1.49 L 16.54 4.16 L 16.54 2.33 C 16.54 1.41 15.8 0.66 14.88 0.66 L 1.67 0.66 C 0.75 0.66 0 1.41 0 2.33 L 0 13.33 C 0 14.25 0.75 15 1.67 15 L 14.88 15 C 15.8 15 16.54 14.25 16.54 13.33 L 16.54 11.51 L 22.61 14.17 C 22.76 14.24 22.91 14.27 23.06 14.27 C 23.61 14.27 24 13.85 24 13.27 L 24 2.4 C 24 1.82 23.61 1.39 23.06 1.39 L 23.06 1.39 Z M 23.06 1.39" />
</svg>